<svg width="100" height="100" viewBox="-10 -10 120 120" fill="none" xmlns="http://www.w3.org/2000/svg">
  <defs>
    <linearGradient id="paperUiLogoFill" x1="0" y1="0" x2="100" y2="100" gradientUnits="userSpaceOnUse">
      <stop offset="0%" stop-color="#E4C9A8"/>
      <stop offset="100%" stop-color="#A67B4F"/>
    </linearGradient>
    <filter id="paperUiLogoShadow" x="-30%" y="-30%" width="160%" height="160%">
      <feDropShadow dx="0" dy="2" stdDeviation="2.5" flood-color="#1A1917" flood-opacity="0.2"/>
    </filter>
  </defs>
  <path
    d="M 94.85 49.06 C 94.47 57.87, 91.20 67.89, 86.10 75.24 C 80.99 82.58, 72.32 90.97, 64.22 93.12 C 56.12 95.26, 45.33 91.21, 37.50 88.11 C 29.68 85.01, 22.04 80.89, 17.28 74.51 C 12.52 68.13, 9.21 58.24, 8.94 49.82 C 8.67 41.41, 10.97 30.71, 15.67 24.00 C 20.37 17.30, 29.49 11.55, 37.13 9.58 C 44.77 7.61, 52.96 10.07, 61.50 12.20 C 70.05 14.32, 82.84 16.20, 88.40 22.35 C 93.96 28.49, 95.24 40.24, 94.85 49.06 Z"
    fill="url(#paperUiLogoFill)"
    filter="url(#paperUiLogoShadow)"
  />
  <path
    d="M 98.85 48.97 C 98.47 58.56, 94.94 69.54, 89.37 77.53 C 83.81 85.52, 74.33 94.52, 65.48 96.92 C 56.62 99.31, 44.82 95.25, 36.26 91.91 C 27.69 88.58, 19.30 83.93, 14.08 76.91 C 8.86 69.89, 5.20 59.03, 4.94 49.81 C 4.67 40.59, 7.32 28.93, 12.48 21.59 C 17.64 14.25, 27.55 7.97, 35.92 5.77 C 44.28 3.56, 53.38 6.00, 62.67 8.37 C 71.96 10.74, 85.62 13.24, 91.65 20.01 C 97.68 26.78, 99.23 39.39, 98.85 48.97 Z"
    fill="none"
    stroke="#1A1917"
    stroke-width="3.5"
    stroke-linecap="round"
    stroke-linejoin="round"
  />
</svg>
